# xmcd
#
# Track frame offsets:
#	150
#	36017
#	59682
#	78739
#	97036
#	114005
#	135757
#	154199
#	177404
#	194153
#	218053
#
# Disc length: 3242 seconds
#
# Revision: 0
# Processed by: cddbd v1.5.1PL0 Copyright (c) Steve Scherf et al.
# Submitted via: dBpowerAMP V4.0
#
DISCID=970ca80b
DTITLE=Roach Thompson - Hot Blues
DYEAR=1900
DGENRE=Blues
TTITLE0=Classy Chassy
TTITLE1=Reconsider Baby
TTITLE2=Walkin' So Long
TTITLE3=Rockin' Good Way
TTITLE4=All My Whole Life
TTITLE5=I Don't Care
TTITLE6=Gonna Get My Baby
TTITLE7=Down The Road You Go
TTITLE8=Wait A Minute Baby
TTITLE9=Roach's After Hours
TTITLE10=Forever Man
EXTD=
EXTT0=
EXTT1=
EXTT2=
EXTT3=
EXTT4=
EXTT5=
EXTT6=
EXTT7=
EXTT8=
EXTT9=
EXTT10=
PLAYORDER=
